<?xml version="1.0" encoding="UTF-8" standalone="no"?>
<!DOCTYPE svg PUBLIC "-//W3C//DTD SVG 1.1//EN" "http://www.w3.org/Graphics/SVG/1.1/DTD/svg11.dtd">
<svg width="100%" height="100%" viewBox="0 0 2887 1512" version="1.1" xmlns="http://www.w3.org/2000/svg" xmlns:xlink="http://www.w3.org/1999/xlink" xml:space="preserve" xmlns:serif="http://www.serif.com/" style="fill-rule:evenodd;clip-rule:evenodd;stroke-linecap:round;stroke-linejoin:round;stroke-miterlimit:1.5;">
    <g transform="matrix(1,0,0,1,-12110,0)">
        <g id="Mountain-Icon" serif:id="Mountain Icon" transform="matrix(1.01592,0,0,1.02492,-219.21,2079.46)">
            <rect x="12136.5" y="-2028.89" width="2841.15" height="1474.84" style="fill:none;"/>
            <g transform="matrix(0.984325,0,0,0.975681,-3009.22,-4777.54)">
                <path d="M16615.3,3466.77L17113.7,2853.59L17550.5,3414.83L17651.6,3219.07L18240.3,4301.02L15426.5,4301.02L15852.2,3687.41L15890.6,3779.58L16348.5,3203.92L16615.3,3466.77Z" style="fill:none;stroke:black;stroke-width:27.4px;"/>
                <path d="M16615.3,3466.77L17113.7,2853.59L17550.5,3414.83L17651.6,3219.07L18240.3,4301.02L15426.5,4301.02L15852.2,3687.41L15890.6,3779.58L16348.5,3203.92L16615.3,3466.77Z"/>
            </g>
        </g>
    </g>
</svg>
