<svg clip-rule="evenodd" fill-rule="evenodd" stroke-linejoin="round" stroke-miterlimit="2" viewBox="0 0 17 17" xmlns="http://www.w3.org/2000/svg"><path d="m.71.954h16v16h-16z" fill="none"/><g fill="#fa9b9b"><path d="m15.51 4.894h-13.278l-.991 1.337h14.269z"/><path d="m1.426 6.554.599.76-.784 4.818 2.559.219.484-3.077h3.02l.484-1.821h7.722v-.853l-14.084-.046zm5.419 2.165.343-1.288-2.558.022-.205 1.288z"/><path d="m15.787 5.171h.392v.807h-.392z"/><path d="m10.941 9.931v.874h.874v-.87z"/><path d="m8.71 10.145h1.834v.445h-1.834z"/><path d="m12.167 10.145h1.834v.445h-1.834z"/><path d="m11.578 9.556v-1.834h-.445v1.834z"/><path d="m11.578 13.014v-1.835h-.445v1.835z"/><path d="m10.939 9.637-1.297-1.297-.314.314 1.297 1.297z"/><path d="m13.384 12.082-1.297-1.298-.315.315 1.298 1.297z"/><path d="m12.087 9.951 1.297-1.297-.314-.314-1.298 1.297z"/><path d="m9.642 12.396 1.297-1.297-.314-.315-1.297 1.298z"/></g></svg>