<?xml version="1.0" encoding="UTF-8" standalone="no"?><!DOCTYPE svg PUBLIC "-//W3C//DTD SVG 1.1//EN" "http://www.w3.org/Graphics/SVG/1.1/DTD/svg11.dtd"><svg width="100%" height="100%" viewBox="0 0 17 17" version="1.1" xmlns="http://www.w3.org/2000/svg" xmlns:xlink="http://www.w3.org/1999/xlink" xml:space="preserve" xmlns:serif="http://www.serif.com/" style="fill-rule:evenodd;clip-rule:evenodd;stroke-linejoin:round;stroke-miterlimit:2;"><rect id="HitscanSmall" x="0.71" y="0.923" width="16" height="16" style="fill:none;"/><g><path d="M15.325,5.049l-13.274,-0l-0.991,1.336l14.265,0l-0,-1.336Z" style="fill:#fa9b9b;"/><path d="M1.244,6.708l0.599,0.761l-0.783,4.816l2.558,0.219l0.484,-3.077l3.019,0l0.484,-1.82l7.72,-0l-0,-0.853l-14.081,-0.046Zm5.418,2.164l0.343,-1.287l-2.558,0.022l-0.204,1.287l2.419,-0.022Z" style="fill:#fa9b9b;"/><rect x="15.601" y="5.325" width="0.392" height="0.807" style="fill:#fa9b9b;"/><g><path d="M12.106,10.455l-7.102,-0.024l0,0.692l7.102,-0l-0,-0.668Zm1.955,0.026l-0,0.657l0.656,0l0,-0.653l-0.656,-0.004Z" style="fill:#fa9b9b;"/><rect x="12.385" y="10.643" width="1.378" height="0.334" style="fill:#fa9b9b;"/><rect x="14.982" y="10.643" width="1.378" height="0.334" style="fill:#fa9b9b;"/><path d="M14.54,10.2l-0,-1.377l-0.335,-0l0,1.377l0.335,0Z" style="fill:#fa9b9b;"/><path d="M14.54,12.797l-0,-1.378l-0.335,0l0,1.378l0.335,0Z" style="fill:#fa9b9b;"/><path d="M14.06,10.261l-0.974,-0.975l-0.237,0.237l0.974,0.974l0.237,-0.236Z" style="fill:#fa9b9b;"/><path d="M15.896,12.097l-0.974,-0.974l-0.237,0.236l0.975,0.974l0.236,-0.236Z" style="fill:#fa9b9b;"/><path d="M14.922,10.497l0.974,-0.974l-0.236,-0.237l-0.975,0.975l0.237,0.236Z" style="fill:#fa9b9b;"/><path d="M13.086,12.333l0.974,-0.974l-0.237,-0.236l-0.974,0.974l0.237,0.236Z" style="fill:#fa9b9b;"/></g></g></svg>