<?xml version="1.0" encoding="UTF-8" standalone="no"?><!DOCTYPE svg PUBLIC "-//W3C//DTD SVG 1.1//EN" "http://www.w3.org/Graphics/SVG/1.1/DTD/svg11.dtd"><svg width="100%" height="100%" viewBox="0 0 17 17" version="1.1" xmlns="http://www.w3.org/2000/svg" xmlns:xlink="http://www.w3.org/1999/xlink" xml:space="preserve" xmlns:serif="http://www.serif.com/" style="fill-rule:evenodd;clip-rule:evenodd;stroke-linejoin:round;stroke-miterlimit:2;"><rect id="PhysicsSmall" x="0.71" y="0.954" width="16" height="16" style="fill:none;"/><g><path d="M15.51,4.894l-13.278,0l-0.991,1.337l14.269,0l0,-1.337Z" style="fill:#fa9b9b;"/><path d="M1.426,6.554l0.599,0.76l-0.784,4.818l2.559,0.219l0.484,-3.077l3.02,-0l0.484,-1.821l7.722,-0l0,-0.853l-14.084,-0.046Zm5.419,2.165l0.343,-1.288l-2.558,0.022l-0.205,1.288l2.42,-0.022Z" style="fill:#fa9b9b;"/><rect x="15.787" y="5.171" width="0.392" height="0.807" style="fill:#fa9b9b;"/><g><path d="M10.941,9.931l-0,0.874l0.874,0l-0,-0.87l-0.874,-0.004Z" style="fill:#fa9b9b;"/><rect x="8.71" y="10.145" width="1.834" height="0.445" style="fill:#fa9b9b;"/><rect x="12.167" y="10.145" width="1.834" height="0.445" style="fill:#fa9b9b;"/><path d="M11.578,9.556l0,-1.834l-0.445,-0l0,1.834l0.445,0Z" style="fill:#fa9b9b;"/><path d="M11.578,13.014l0,-1.835l-0.445,0l0,1.835l0.445,-0Z" style="fill:#fa9b9b;"/><path d="M10.939,9.637l-1.297,-1.297l-0.314,0.314l1.297,1.297l0.314,-0.314Z" style="fill:#fa9b9b;"/><path d="M13.384,12.082l-1.297,-1.298l-0.315,0.315l1.298,1.297l0.314,-0.314Z" style="fill:#fa9b9b;"/><path d="M12.087,9.951l1.297,-1.297l-0.314,-0.314l-1.298,1.297l0.315,0.314Z" style="fill:#fa9b9b;"/><path d="M9.642,12.396l1.297,-1.297l-0.314,-0.315l-1.297,1.298l0.314,0.314Z" style="fill:#fa9b9b;"/></g></g></svg>