<svg clip-rule="evenodd" fill-rule="evenodd" stroke-linejoin="round" stroke-miterlimit="2" viewBox="0 0 17 17" xmlns="http://www.w3.org/2000/svg"><path d="m.71.923h16v16h-16z" fill="none"/><g fill="#fa9b9b"><path d="m15.325 5.049h-13.274l-.991 1.336h14.265z"/><path d="m1.244 6.708.599.761-.783 4.816 2.558.219.484-3.077h3.019l.484-1.82h7.72v-.853zm5.418 2.164.343-1.287-2.558.022-.204 1.287z"/><path d="m15.601 5.325h.392v.807h-.392z"/><path d="m12.106 10.455-7.102-.024v.692h7.102zm1.955.026v.657h.656v-.653z"/><path d="m12.385 10.643h1.378v.334h-1.378z"/><path d="m14.982 10.643h1.378v.334h-1.378z"/><path d="m14.54 10.2v-1.377h-.335v1.377z"/><path d="m14.54 12.797v-1.378h-.335v1.378z"/><path d="m14.06 10.261-.974-.975-.237.237.974.974z"/><path d="m15.896 12.097-.974-.974-.237.236.975.974z"/><path d="m14.922 10.497.974-.974-.236-.237-.975.975z"/><path d="m13.086 12.333.974-.974-.237-.236-.974.974z"/></g></svg>